<svg xmlns="http://www.w3.org/2000/svg" width="720" height="440" viewBox="0 0 720 440">
<text font-family="Helvetica,Arial,sans-serif" font-size="19" fill="#202124" x="360.0" y="22.0" text-anchor="middle" font-weight="700" dominant-baseline="central">Faithfulness suite (illustrative; TBR)</text>
<text font-family="Helvetica,Arial,sans-serif" font-size="15" fill="#202124" x="52.0" y="48.0" text-anchor="start" font-weight="700" dominant-baseline="central">(a)  Intervention (%)</text>
<line x1="96.0" y1="208.0" x2="352.0" y2="208.0" stroke="#E8EAED" stroke-width="1.0"/>
<text font-family="Helvetica,Arial,sans-serif" font-size="12.5" fill="#5F6368" x="88.0" y="208.0" text-anchor="end" dominant-baseline="central">75</text>
<line x1="96.0" y1="179.2" x2="352.0" y2="179.2" stroke="#E8EAED" stroke-width="1.0"/>
<text font-family="Helvetica,Arial,sans-serif" font-size="12.5" fill="#5F6368" x="88.0" y="179.2" text-anchor="end" dominant-baseline="central">80</text>
<line x1="96.0" y1="150.4" x2="352.0" y2="150.4" stroke="#E8EAED" stroke-width="1.0"/>
<text font-family="Helvetica,Arial,sans-serif" font-size="12.5" fill="#5F6368" x="88.0" y="150.4" text-anchor="end" dominant-baseline="central">85</text>
<line x1="96.0" y1="121.6" x2="352.0" y2="121.6" stroke="#E8EAED" stroke-width="1.0"/>
<text font-family="Helvetica,Arial,sans-serif" font-size="12.5" fill="#5F6368" x="88.0" y="121.6" text-anchor="end" dominant-baseline="central">90</text>
<line x1="96.0" y1="92.8" x2="352.0" y2="92.8" stroke="#E8EAED" stroke-width="1.0"/>
<text font-family="Helvetica,Arial,sans-serif" font-size="12.5" fill="#5F6368" x="88.0" y="92.8" text-anchor="end" dominant-baseline="central">95</text>
<line x1="96.0" y1="64.0" x2="352.0" y2="64.0" stroke="#E8EAED" stroke-width="1.0"/>
<text font-family="Helvetica,Arial,sans-serif" font-size="12.5" fill="#5F6368" x="88.0" y="64.0" text-anchor="end" dominant-baseline="central">100</text>
<line x1="96.0" y1="208.0" x2="352.0" y2="208.0" stroke="#9AA0A6" stroke-width="1.2"/>
<rect x="110.8" y="115.8" width="32.0" height="92.2" rx="2" fill="#1A73E8"/>
<text font-family="Helvetica,Arial,sans-serif" font-size="11.5" fill="#5F6368" x="126.8" y="220.0" text-anchor="middle" dominant-baseline="central">Transl.</text>
<rect x="172.2" y="133.1" width="32.0" height="74.9" rx="2" fill="#188038"/>
<text font-family="Helvetica,Arial,sans-serif" font-size="11.5" fill="#5F6368" x="188.2" y="220.0" text-anchor="middle" dominant-baseline="central">Regime</text>
<rect x="233.8" y="150.4" width="32.0" height="57.6" rx="2" fill="#E37400"/>
<text font-family="Helvetica,Arial,sans-serif" font-size="11.5" fill="#5F6368" x="249.8" y="220.0" text-anchor="middle" dominant-baseline="central">Growth</text>
<rect x="295.2" y="138.9" width="32.0" height="69.1" rx="2" fill="#D93025"/>
<text font-family="Helvetica,Arial,sans-serif" font-size="11.5" fill="#5F6368" x="311.2" y="220.0" text-anchor="middle" dominant-baseline="central">Motion</text>
<text font-family="Helvetica,Arial,sans-serif" font-size="15" fill="#202124" x="412.0" y="48.0" text-anchor="start" font-weight="700" dominant-baseline="central">(b)  Bottleneck ablation (CSI)</text>
<line x1="456.0" y1="208.0" x2="712.0" y2="208.0" stroke="#E8EAED" stroke-width="1.0"/>
<text font-family="Helvetica,Arial,sans-serif" font-size="12.5" fill="#5F6368" x="448.0" y="208.0" text-anchor="end" dominant-baseline="central">0.0</text>
<line x1="456.0" y1="179.2" x2="712.0" y2="179.2" stroke="#E8EAED" stroke-width="1.0"/>
<text font-family="Helvetica,Arial,sans-serif" font-size="12.5" fill="#5F6368" x="448.0" y="179.2" text-anchor="end" dominant-baseline="central">0.1</text>
<line x1="456.0" y1="150.4" x2="712.0" y2="150.4" stroke="#E8EAED" stroke-width="1.0"/>
<text font-family="Helvetica,Arial,sans-serif" font-size="12.5" fill="#5F6368" x="448.0" y="150.4" text-anchor="end" dominant-baseline="central">0.2</text>
<line x1="456.0" y1="121.6" x2="712.0" y2="121.6" stroke="#E8EAED" stroke-width="1.0"/>
<text font-family="Helvetica,Arial,sans-serif" font-size="12.5" fill="#5F6368" x="448.0" y="121.6" text-anchor="end" dominant-baseline="central">0.3</text>
<line x1="456.0" y1="92.8" x2="712.0" y2="92.8" stroke="#E8EAED" stroke-width="1.0"/>
<text font-family="Helvetica,Arial,sans-serif" font-size="12.5" fill="#5F6368" x="448.0" y="92.8" text-anchor="end" dominant-baseline="central">0.4</text>
<line x1="456.0" y1="64.0" x2="712.0" y2="64.0" stroke="#E8EAED" stroke-width="1.0"/>
<text font-family="Helvetica,Arial,sans-serif" font-size="12.5" fill="#5F6368" x="448.0" y="64.0" text-anchor="end" dominant-baseline="central">0.5</text>
<line x1="456.0" y1="208.0" x2="712.0" y2="208.0" stroke="#9AA0A6" stroke-width="1.2"/>
<rect x="469.8" y="89.9" width="34.0" height="118.1" rx="2" fill="#188038"/>
<text font-family="Helvetica,Arial,sans-serif" font-size="11.5" fill="#5F6368" x="486.8" y="220.0" text-anchor="middle" dominant-baseline="central">Oracle</text>
<rect x="531.2" y="107.2" width="34.0" height="100.8" rx="2" fill="#1A73E8"/>
<text font-family="Helvetica,Arial,sans-serif" font-size="11.5" fill="#5F6368" x="548.2" y="220.0" text-anchor="middle" dominant-baseline="central">Inferred</text>
<rect x="592.8" y="208.0" width="34.0" height="0.6" rx="2" fill="#5F6368"/>
<text font-family="Helvetica,Arial,sans-serif" font-size="11.5" fill="#5F6368" x="609.8" y="220.0" text-anchor="middle" dominant-baseline="central">Zeroed</text>
<rect x="654.2" y="144.6" width="34.0" height="63.4" rx="2" fill="#D93025"/>
<text font-family="Helvetica,Arial,sans-serif" font-size="11.5" fill="#5F6368" x="671.2" y="220.0" text-anchor="middle" dominant-baseline="central">Shuffled</text>
<text font-family="Helvetica,Arial,sans-serif" font-size="11.5" fill="#A50E0E" x="609.8" y="76.0" text-anchor="middle" font-style="italic" dominant-baseline="central">zeroed -> advection</text>
<text font-family="Helvetica,Arial,sans-serif" font-size="15" fill="#202124" x="52.0" y="252.0" text-anchor="start" font-weight="700" dominant-baseline="central">(c)  Leakage MI (nats)</text>
<line x1="96.0" y1="412.0" x2="352.0" y2="412.0" stroke="#E8EAED" stroke-width="1.0"/>
<text font-family="Helvetica,Arial,sans-serif" font-size="12.5" fill="#5F6368" x="88.0" y="412.0" text-anchor="end" dominant-baseline="central">0</text>
<line x1="96.0" y1="383.2" x2="352.0" y2="383.2" stroke="#E8EAED" stroke-width="1.0"/>
<text font-family="Helvetica,Arial,sans-serif" font-size="12.5" fill="#5F6368" x="88.0" y="383.2" text-anchor="end" dominant-baseline="central">10</text>
<line x1="96.0" y1="354.4" x2="352.0" y2="354.4" stroke="#E8EAED" stroke-width="1.0"/>
<text font-family="Helvetica,Arial,sans-serif" font-size="12.5" fill="#5F6368" x="88.0" y="354.4" text-anchor="end" dominant-baseline="central">20</text>
<line x1="96.0" y1="325.6" x2="352.0" y2="325.6" stroke="#E8EAED" stroke-width="1.0"/>
<text font-family="Helvetica,Arial,sans-serif" font-size="12.5" fill="#5F6368" x="88.0" y="325.6" text-anchor="end" dominant-baseline="central">30</text>
<line x1="96.0" y1="296.8" x2="352.0" y2="296.8" stroke="#E8EAED" stroke-width="1.0"/>
<text font-family="Helvetica,Arial,sans-serif" font-size="12.5" fill="#5F6368" x="88.0" y="296.8" text-anchor="end" dominant-baseline="central">40</text>
<line x1="96.0" y1="268.0" x2="352.0" y2="268.0" stroke="#E8EAED" stroke-width="1.0"/>
<text font-family="Helvetica,Arial,sans-serif" font-size="12.5" fill="#5F6368" x="88.0" y="268.0" text-anchor="end" dominant-baseline="central">50</text>
<line x1="96.0" y1="412.0" x2="352.0" y2="412.0" stroke="#9AA0A6" stroke-width="1.2"/>
<rect x="100.9" y="409.1" width="25.3" height="2.9" rx="2" fill="#1A73E8"/>
<text font-family="Helvetica,Arial,sans-serif" font-size="11.5" fill="#5F6368" x="113.6" y="424.0" text-anchor="middle" dominant-baseline="central">-.06</text>
<rect x="136.1" y="386.1" width="25.3" height="25.9" rx="2" fill="#1A73E8"/>
<text font-family="Helvetica,Arial,sans-serif" font-size="11.5" fill="#5F6368" x="148.7" y="424.0" text-anchor="middle" dominant-baseline="central">-.04</text>
<rect x="171.2" y="331.4" width="25.3" height="80.6" rx="2" fill="#1A73E8"/>
<text font-family="Helvetica,Arial,sans-serif" font-size="11.5" fill="#5F6368" x="183.9" y="424.0" text-anchor="middle" dominant-baseline="central">-.02</text>
<rect x="206.3" y="279.5" width="25.3" height="132.5" rx="2" fill="#1A73E8"/>
<text font-family="Helvetica,Arial,sans-serif" font-size="11.5" fill="#5F6368" x="219.0" y="424.0" text-anchor="middle" dominant-baseline="central">~0</text>
<rect x="241.5" y="331.4" width="25.3" height="80.6" rx="2" fill="#1A73E8"/>
<text font-family="Helvetica,Arial,sans-serif" font-size="11.5" fill="#5F6368" x="254.1" y="424.0" text-anchor="middle" dominant-baseline="central">.02</text>
<rect x="276.6" y="386.1" width="25.3" height="25.9" rx="2" fill="#1A73E8"/>
<text font-family="Helvetica,Arial,sans-serif" font-size="11.5" fill="#5F6368" x="289.3" y="424.0" text-anchor="middle" dominant-baseline="central">.04</text>
<rect x="311.8" y="409.1" width="25.3" height="2.9" rx="2" fill="#1A73E8"/>
<text font-family="Helvetica,Arial,sans-serif" font-size="11.5" fill="#5F6368" x="324.4" y="424.0" text-anchor="middle" dominant-baseline="central">.06</text>
<line x1="201.4" y1="268.0" x2="201.4" y2="412.0" stroke="#D93025" stroke-width="1.2" stroke-dasharray="4 2"/>
<text font-family="Helvetica,Arial,sans-serif" font-size="15" fill="#202124" x="412.0" y="252.0" text-anchor="start" font-weight="700" dominant-baseline="central">(d)  VLM curriculum ASG F1</text>
<line x1="456.0" y1="412.0" x2="712.0" y2="412.0" stroke="#E8EAED" stroke-width="1.0"/>
<text font-family="Helvetica,Arial,sans-serif" font-size="12.5" fill="#5F6368" x="448.0" y="412.0" text-anchor="end" dominant-baseline="central">0.3</text>
<line x1="456.0" y1="388.0" x2="712.0" y2="388.0" stroke="#E8EAED" stroke-width="1.0"/>
<text font-family="Helvetica,Arial,sans-serif" font-size="12.5" fill="#5F6368" x="448.0" y="388.0" text-anchor="end" dominant-baseline="central">0.4</text>
<line x1="456.0" y1="364.0" x2="712.0" y2="364.0" stroke="#E8EAED" stroke-width="1.0"/>
<text font-family="Helvetica,Arial,sans-serif" font-size="12.5" fill="#5F6368" x="448.0" y="364.0" text-anchor="end" dominant-baseline="central">0.5</text>
<line x1="456.0" y1="340.0" x2="712.0" y2="340.0" stroke="#E8EAED" stroke-width="1.0"/>
<text font-family="Helvetica,Arial,sans-serif" font-size="12.5" fill="#5F6368" x="448.0" y="340.0" text-anchor="end" dominant-baseline="central">0.6</text>
<line x1="456.0" y1="316.0" x2="712.0" y2="316.0" stroke="#E8EAED" stroke-width="1.0"/>
<text font-family="Helvetica,Arial,sans-serif" font-size="12.5" fill="#5F6368" x="448.0" y="316.0" text-anchor="end" dominant-baseline="central">0.7</text>
<line x1="456.0" y1="292.0" x2="712.0" y2="292.0" stroke="#E8EAED" stroke-width="1.0"/>
<text font-family="Helvetica,Arial,sans-serif" font-size="12.5" fill="#5F6368" x="448.0" y="292.0" text-anchor="end" dominant-baseline="central">0.8</text>
<line x1="456.0" y1="268.0" x2="712.0" y2="268.0" stroke="#E8EAED" stroke-width="1.0"/>
<text font-family="Helvetica,Arial,sans-serif" font-size="12.5" fill="#5F6368" x="448.0" y="268.0" text-anchor="end" dominant-baseline="central">0.9</text>
<line x1="456.0" y1="412.0" x2="712.0" y2="412.0" stroke="#9AA0A6" stroke-width="1.2"/>
<text font-family="Helvetica,Arial,sans-serif" font-size="11.5" fill="#5F6368" x="466.0" y="424.0" text-anchor="middle" dominant-baseline="central">Ph-1</text>
<text font-family="Helvetica,Arial,sans-serif" font-size="11.5" fill="#5F6368" x="526.0" y="424.0" text-anchor="middle" dominant-baseline="central">Ph-2</text>
<text font-family="Helvetica,Arial,sans-serif" font-size="11.5" fill="#5F6368" x="586.0" y="424.0" text-anchor="middle" dominant-baseline="central">Ph-3</text>
<text font-family="Helvetica,Arial,sans-serif" font-size="11.5" fill="#5F6368" x="646.0" y="424.0" text-anchor="middle" dominant-baseline="central">Ph-4</text>
<text font-family="Helvetica,Arial,sans-serif" font-size="11.5" fill="#5F6368" x="706.0" y="424.0" text-anchor="middle" dominant-baseline="central">Ph-5</text>
<line x1="456.0" y1="316.0" x2="712.0" y2="316.0" stroke="#D93025" stroke-width="1.2" stroke-dasharray="5 3"/>
<text font-family="Helvetica,Arial,sans-serif" font-size="11.5" fill="#A50E0E" x="710.0" y="307.0" text-anchor="end" dominant-baseline="central">gate 0.70</text>
<path d="M 466.0 385.6 L 526.0 359.2 L 586.0 313.6 L 646.0 299.2 L 706.0 284.8" fill="none" stroke="#8430CE" stroke-width="2.6" stroke-linejoin="round" stroke-linecap="round"/>
<circle cx="466.0" cy="385.6" r="4.0" fill="#8430CE" stroke="#fff" stroke-width="1.4"/>
<circle cx="526.0" cy="359.2" r="4.0" fill="#8430CE" stroke="#fff" stroke-width="1.4"/>
<circle cx="586.0" cy="313.6" r="4.0" fill="#188038" stroke="#fff" stroke-width="1.4"/>
<circle cx="646.0" cy="299.2" r="4.0" fill="#8430CE" stroke="#fff" stroke-width="1.4"/>
<circle cx="706.0" cy="284.8" r="4.0" fill="#8430CE" stroke="#fff" stroke-width="1.4"/>
</svg>
