<svg xmlns="http://www.w3.org/2000/svg" width="700" height="330" viewBox="0 0 700 330">
<text font-family="Helvetica,Arial,sans-serif" font-size="19" fill="#202124" x="350.0" y="24.0" text-anchor="middle" font-weight="700" dominant-baseline="central">Regime-stratified skill</text>
<line x1="66.0" y1="268.0" x2="648.0" y2="268.0" stroke="#E8EAED" stroke-width="1.0"/>
<text font-family="Helvetica,Arial,sans-serif" font-size="12.5" fill="#5F6368" x="58.0" y="268.0" text-anchor="end" dominant-baseline="central">0.0</text>
<line x1="66.0" y1="232.0" x2="648.0" y2="232.0" stroke="#E8EAED" stroke-width="1.0"/>
<text font-family="Helvetica,Arial,sans-serif" font-size="12.5" fill="#5F6368" x="58.0" y="232.0" text-anchor="end" dominant-baseline="central">0.1</text>
<line x1="66.0" y1="196.0" x2="648.0" y2="196.0" stroke="#E8EAED" stroke-width="1.0"/>
<text font-family="Helvetica,Arial,sans-serif" font-size="12.5" fill="#5F6368" x="58.0" y="196.0" text-anchor="end" dominant-baseline="central">0.2</text>
<line x1="66.0" y1="160.0" x2="648.0" y2="160.0" stroke="#E8EAED" stroke-width="1.0"/>
<text font-family="Helvetica,Arial,sans-serif" font-size="12.5" fill="#5F6368" x="58.0" y="160.0" text-anchor="end" dominant-baseline="central">0.3</text>
<line x1="66.0" y1="124.0" x2="648.0" y2="124.0" stroke="#E8EAED" stroke-width="1.0"/>
<text font-family="Helvetica,Arial,sans-serif" font-size="12.5" fill="#5F6368" x="58.0" y="124.0" text-anchor="end" dominant-baseline="central">0.4</text>
<line x1="66.0" y1="88.0" x2="648.0" y2="88.0" stroke="#E8EAED" stroke-width="1.0"/>
<text font-family="Helvetica,Arial,sans-serif" font-size="12.5" fill="#5F6368" x="58.0" y="88.0" text-anchor="end" dominant-baseline="central">0.5</text>
<line x1="66.0" y1="52.0" x2="648.0" y2="52.0" stroke="#E8EAED" stroke-width="1.0"/>
<text font-family="Helvetica,Arial,sans-serif" font-size="12.5" fill="#5F6368" x="58.0" y="52.0" text-anchor="end" dominant-baseline="central">0.6</text>
<line x1="66.0" y1="268.0" x2="648.0" y2="268.0" stroke="#9AA0A6" stroke-width="1.2"/>
<text font-family="Helvetica,Arial,sans-serif" font-size="11.5" fill="#5F6368" x="66.0" y="42.0" text-anchor="start" font-weight="600" dominant-baseline="central">CSI (heavy, >=45 dBZ)</text>
<rect x="91.8" y="250.0" width="14.0" height="18.0" rx="2" fill="#5F6368"/>
<rect x="107.8" y="235.6" width="14.0" height="32.4" rx="2" fill="#1A73E8"/>
<rect x="123.8" y="203.2" width="14.0" height="64.8" rx="2" fill="#E37400"/>
<rect x="139.8" y="210.4" width="14.0" height="57.6" rx="2" fill="#188038"/>
<rect x="155.8" y="196.0" width="14.0" height="72.0" rx="2" fill="#D93025"/>
<rect x="171.8" y="149.2" width="14.0" height="118.8" rx="2" fill="#8430CE" stroke="#5B1C9E" stroke-width="1.4"/>
<text font-family="Helvetica,Arial,sans-serif" font-size="13" fill="#3C4043" x="138.8" y="283.0" text-anchor="middle" dominant-baseline="central">Initiation</text>
<rect x="237.2" y="232.0" width="14.0" height="36.0" rx="2" fill="#5F6368"/>
<rect x="253.2" y="210.4" width="14.0" height="57.6" rx="2" fill="#1A73E8"/>
<rect x="269.2" y="167.2" width="14.0" height="100.8" rx="2" fill="#E37400"/>
<rect x="285.2" y="174.4" width="14.0" height="93.6" rx="2" fill="#188038"/>
<rect x="301.2" y="160.0" width="14.0" height="108.0" rx="2" fill="#D93025"/>
<rect x="317.2" y="127.6" width="14.0" height="140.4" rx="2" fill="#8430CE" stroke="#5B1C9E" stroke-width="1.4"/>
<text font-family="Helvetica,Arial,sans-serif" font-size="13" fill="#3C4043" x="284.2" y="283.0" text-anchor="middle" dominant-baseline="central">Growth</text>
<rect x="382.8" y="196.0" width="14.0" height="72.0" rx="2" fill="#5F6368"/>
<rect x="398.8" y="174.4" width="14.0" height="93.6" rx="2" fill="#1A73E8"/>
<rect x="414.8" y="142.0" width="14.0" height="126.0" rx="2" fill="#E37400"/>
<rect x="430.8" y="149.2" width="14.0" height="118.8" rx="2" fill="#188038"/>
<rect x="446.8" y="134.8" width="14.0" height="133.2" rx="2" fill="#D93025"/>
<rect x="462.8" y="127.6" width="14.0" height="140.4" rx="2" fill="#8430CE" stroke="#5B1C9E" stroke-width="1.4"/>
<text font-family="Helvetica,Arial,sans-serif" font-size="13" fill="#3C4043" x="429.8" y="283.0" text-anchor="middle" dominant-baseline="central">Decay</text>
<rect x="528.2" y="152.8" width="14.0" height="115.2" rx="2" fill="#5F6368"/>
<rect x="544.2" y="131.2" width="14.0" height="136.8" rx="2" fill="#1A73E8"/>
<rect x="560.2" y="80.8" width="14.0" height="187.2" rx="2" fill="#E37400"/>
<rect x="576.2" y="95.2" width="14.0" height="172.8" rx="2" fill="#188038"/>
<rect x="592.2" y="70.0" width="14.0" height="198.0" rx="2" fill="#D93025"/>
<rect x="608.2" y="88.0" width="14.0" height="180.0" rx="2" fill="#8430CE" stroke="#5B1C9E" stroke-width="1.4"/>
<text font-family="Helvetica,Arial,sans-serif" font-size="13" fill="#3C4043" x="575.2" y="283.0" text-anchor="middle" dominant-baseline="central">Steady</text>
<rect x="66.0" y="300.0" width="14.0" height="14.0" rx="2" fill="#5F6368"/>
<text font-family="Helvetica,Arial,sans-serif" font-size="11.5" fill="#5F6368" x="84.0" y="307.0" text-anchor="start" dominant-baseline="central">pysteps</text>
<rect x="149.0" y="300.0" width="14.0" height="14.0" rx="2" fill="#1A73E8"/>
<text font-family="Helvetica,Arial,sans-serif" font-size="11.5" fill="#5F6368" x="167.0" y="307.0" text-anchor="start" dominant-baseline="central">RainNet</text>
<rect x="232.0" y="300.0" width="14.0" height="14.0" rx="2" fill="#E37400"/>
<text font-family="Helvetica,Arial,sans-serif" font-size="11.5" fill="#5F6368" x="250.0" y="307.0" text-anchor="start" dominant-baseline="central">NowcastNet</text>
<rect x="336.0" y="300.0" width="14.0" height="14.0" rx="2" fill="#188038"/>
<text font-family="Helvetica,Arial,sans-serif" font-size="11.5" fill="#5F6368" x="354.0" y="307.0" text-anchor="start" dominant-baseline="central">LangPrecip</text>
<rect x="440.0" y="300.0" width="14.0" height="14.0" rx="2" fill="#D93025"/>
<text font-family="Helvetica,Arial,sans-serif" font-size="11.5" fill="#5F6368" x="458.0" y="307.0" text-anchor="start" dominant-baseline="central">ThoR</text>
<rect x="502.0" y="300.0" width="14.0" height="14.0" rx="2" fill="#8430CE"/>
<text font-family="Helvetica,Arial,sans-serif" font-size="11.5" fill="#5F6368" x="520.0" y="307.0" text-anchor="start" dominant-baseline="central">ASG-WM</text>
</svg>
