<svg xmlns="http://www.w3.org/2000/svg" width="1080" height="360" viewBox="0 0 1080 360">
<text font-family="Helvetica,Arial,sans-serif" font-size="19" fill="#202124" x="540.0" y="24.0" text-anchor="middle" font-weight="700" dominant-baseline="central">Stage C: physics-informed latent rectified-flow renderer</text>
<text font-family="Helvetica,Arial,sans-serif" font-size="13" fill="#5F6368" x="540.0" y="44.0" text-anchor="middle" font-style="italic" dominant-baseline="central">field = advect_blind(X_t) + D(Z);   zero ASG  =>  D -> 0  =>  pure advection</text>
<rect x="18.0" y="84.0" width="196.0" height="168.0" rx="8" fill="#FCE8E6" stroke="#D93025" stroke-width="1.5" stroke-dasharray="6 3"/>
<text font-family="Helvetica,Arial,sans-serif" font-size="15" fill="#A50E0E" x="116.0" y="104.0" text-anchor="middle" font-weight="700" dominant-baseline="central">Bottleneck input Z</text>
<rect x="34.0" y="122.0" width="90.0" height="44.0" rx="3" fill="#FEF7E0" stroke="#E37400" stroke-width="0.7"/>
<rect x="41.0" y="127.0" width="90.0" height="44.0" rx="3" fill="#FEF7E0" stroke="#E37400" stroke-width="0.7"/>
<rect x="48.0" y="132.0" width="90.0" height="44.0" rx="3" fill="#FEF7E0" stroke="#E37400" stroke-width="0.7"/>
<rect x="55.0" y="137.0" width="90.0" height="44.0" rx="3" fill="#FEF7E0" stroke="#E37400" stroke-width="0.7"/>
<text font-family="Helvetica,Arial,sans-serif" font-size="11.5" fill="#8A4B00" x="79.0" y="148.0" text-anchor="middle" font-weight="600" dominant-baseline="central">ASG channels</text>
<rect x="136.0" y="126.0" width="64.0" height="48.0" rx="3" fill="#E8F0FE" stroke="#1A73E8" stroke-width="0.8"/>
<text font-family="Helvetica,Arial,sans-serif" font-size="11.5" fill="#0B57A8" x="168.0" y="150.0" text-anchor="middle" dominant-baseline="central">advect</text>
<text font-family="Helvetica,Arial,sans-serif" font-size="11.5" fill="#202124" x="116.0" y="200.0" text-anchor="middle" font-weight="600" dominant-baseline="central">Z = ASG (+) advect_blind</text>
<text font-family="Helvetica,Arial,sans-serif" font-size="11.5" fill="#A50E0E" x="116.0" y="220.0" text-anchor="middle" font-style="italic" dominant-baseline="central">the only future-bearing input</text>
<polygon points="262.0,128.0 334.0,144.0 334.0,192.0 262.0,208.0" fill="#fff" stroke="#12806A" stroke-width="1.3"/>
<text font-family="Helvetica,Arial,sans-serif" font-size="13" fill="#0A5446" x="296.0" y="161.0" text-anchor="middle" font-weight="600" dominant-baseline="central">VAE</text>
<text font-family="Helvetica,Arial,sans-serif" font-size="11.5" fill="#5F6368" x="296.0" y="177.0" text-anchor="middle" dominant-baseline="central">encode</text>
<line x1="218.0" y1="168.0" x2="249.0" y2="168.0" stroke="#5F6368" stroke-width="1.8"/>
<polygon points="258.0,168.0 249.0,172.1 249.0,163.9" fill="#5F6368"/>
<rect x="382.0" y="80.0" width="396.0" height="176.0" rx="8" fill="#F8F7FF" stroke="#8430CE" stroke-width="1.3"/>
<text font-family="Helvetica,Arial,sans-serif" font-size="15" fill="#5B1C9E" x="580.0" y="98.0" text-anchor="middle" font-weight="700" dominant-baseline="central">Conditional latent U-Net  v(x, t, cond)</text>
<line x1="338.0" y1="168.0" x2="369.0" y2="168.0" stroke="#5F6368" stroke-width="1.8"/>
<polygon points="378.0,168.0 369.0,172.1 369.0,163.9" fill="#5F6368"/>
<rect x="404.0" y="114.0" width="78.0" height="28.0" rx="5" fill="#E8F0FE" stroke="#1A73E8" stroke-width="1.0"/>
<text font-family="Helvetica,Arial,sans-serif" font-size="11.5" fill="#0B57A8" x="443.0" y="128.0" text-anchor="middle" font-weight="600" dominant-baseline="central">Down 1</text>
<rect x="404.0" y="148.0" width="78.0" height="28.0" rx="5" fill="#E8F0FE" stroke="#1A73E8" stroke-width="1.0"/>
<text font-family="Helvetica,Arial,sans-serif" font-size="11.5" fill="#0B57A8" x="443.0" y="162.0" text-anchor="middle" font-weight="600" dominant-baseline="central">Down 2</text>
<rect x="404.0" y="182.0" width="78.0" height="28.0" rx="5" fill="#E8F0FE" stroke="#1A73E8" stroke-width="1.0"/>
<text font-family="Helvetica,Arial,sans-serif" font-size="11.5" fill="#0B57A8" x="443.0" y="196.0" text-anchor="middle" font-weight="600" dominant-baseline="central">Down 3</text>
<rect x="538.0" y="148.0" width="84.0" height="28.0" rx="5" fill="#FEF7E0" stroke="#E37400" stroke-width="1.0"/>
<text font-family="Helvetica,Arial,sans-serif" font-size="11.5" fill="#8A4B00" x="580.0" y="162.0" text-anchor="middle" font-weight="600" dominant-baseline="central">Mid (attn)</text>
<rect x="678.0" y="114.0" width="78.0" height="28.0" rx="5" fill="#E1F4F0" stroke="#12806A" stroke-width="1.0"/>
<text font-family="Helvetica,Arial,sans-serif" font-size="11.5" fill="#0A5446" x="717.0" y="128.0" text-anchor="middle" font-weight="600" dominant-baseline="central">Up 1</text>
<rect x="678.0" y="148.0" width="78.0" height="28.0" rx="5" fill="#E1F4F0" stroke="#12806A" stroke-width="1.0"/>
<text font-family="Helvetica,Arial,sans-serif" font-size="11.5" fill="#0A5446" x="717.0" y="162.0" text-anchor="middle" font-weight="600" dominant-baseline="central">Up 2</text>
<rect x="678.0" y="182.0" width="78.0" height="28.0" rx="5" fill="#E1F4F0" stroke="#12806A" stroke-width="1.0"/>
<text font-family="Helvetica,Arial,sans-serif" font-size="11.5" fill="#0A5446" x="717.0" y="196.0" text-anchor="middle" font-weight="600" dominant-baseline="central">Up 3</text>
<path d="M 482 128 C 580.0 112, 580.0 112, 678 128" fill="none" stroke="#9AA0A6" stroke-width="1.0" stroke-dasharray="3 2" stroke-linejoin="round" stroke-linecap="round"/>
<path d="M 482 162 C 580.0 146, 580.0 146, 678 162" fill="none" stroke="#9AA0A6" stroke-width="1.0" stroke-dasharray="3 2" stroke-linejoin="round" stroke-linecap="round"/>
<path d="M 482 196 C 580.0 180, 580.0 180, 678 196" fill="none" stroke="#9AA0A6" stroke-width="1.0" stroke-dasharray="3 2" stroke-linejoin="round" stroke-linecap="round"/>
<text font-family="Helvetica,Arial,sans-serif" font-size="11.5" fill="#5F6368" x="580.0" y="122.0" text-anchor="middle" font-style="italic" dominant-baseline="central">skip connections</text>
<rect x="404.0" y="222.0" width="352.0" height="28.0" rx="6" fill="#F3E8FD" stroke="#8430CE" stroke-width="1.1"/>
<text font-family="Helvetica,Arial,sans-serif" font-size="11.5" fill="#5B1C9E" x="580.0" y="236.0" text-anchor="middle" font-weight="600" dominant-baseline="central">few-step rectified-flow integrate -> D(latent)</text>
<rect x="525.0" y="282.0" width="110.0" height="34.0" rx="6" fill="#F3E8FD" stroke="#8430CE" stroke-width="1.1"/>
<text font-family="Helvetica,Arial,sans-serif" font-size="11.5" fill="#5B1C9E" x="580.0" y="299.0" text-anchor="middle" font-weight="600" dominant-baseline="central">cond. proj. (Z)</text>
<line x1="580.0" y1="278.0" x2="580.0" y2="269.0" stroke="#8430CE" stroke-width="1.8"/>
<polygon points="580.0,260.0 584.0,269.0 576.0,269.0" fill="#8430CE"/>
<path d="M 66.0 252.0 L 66.0 299.0 L 525.0 299.0" fill="none" stroke="#8430CE" stroke-width="1.6" stroke-linejoin="round" stroke-linecap="round"/>
<polygon points="525.0,299.0 516.0,303.1 516.0,294.9" fill="#8430CE"/>
<polygon points="822.0,144.0 894.0,128.0 894.0,208.0 822.0,192.0" fill="#fff" stroke="#12806A" stroke-width="1.3"/>
<text font-family="Helvetica,Arial,sans-serif" font-size="13" fill="#0A5446" x="860.0" y="161.0" text-anchor="middle" font-weight="600" dominant-baseline="central">VAE</text>
<text font-family="Helvetica,Arial,sans-serif" font-size="11.5" fill="#5F6368" x="860.0" y="177.0" text-anchor="middle" dominant-baseline="central">decode</text>
<line x1="782.0" y1="168.0" x2="809.0" y2="168.0" stroke="#5F6368" stroke-width="1.8"/>
<polygon points="818.0,168.0 809.0,172.1 809.0,163.9" fill="#5F6368"/>
<text font-family="Helvetica,Arial,sans-serif" font-size="11.5" fill="#5F6368" x="800.0" y="153.0" text-anchor="middle" font-style="italic" dominant-baseline="central">D latent</text>
<circle cx="948.0" cy="168.0" r="17.0" fill="#fff" stroke="#202124" stroke-width="1.4"/>
<text font-family="Helvetica,Arial,sans-serif" font-size="19" fill="#202124" x="948.0" y="168.0" text-anchor="middle" font-weight="700" dominant-baseline="central">+</text>
<line x1="898.0" y1="168.0" x2="918.0" y2="168.0" stroke="#5F6368" stroke-width="1.8"/>
<polygon points="927.0,168.0 918.0,172.1 918.0,163.9" fill="#5F6368"/>
<rect x="992.0" y="118.0" width="30.0" height="30.0" rx="3" fill="#E1F4F0" stroke="#12806A" stroke-width="0.7"/>
<rect x="1026.0" y="118.0" width="30.0" height="30.0" rx="3" fill="#E1F4F0" stroke="#12806A" stroke-width="0.7"/>
<rect x="992.0" y="152.0" width="30.0" height="30.0" rx="3" fill="#E1F4F0" stroke="#12806A" stroke-width="0.7"/>
<rect x="1026.0" y="152.0" width="30.0" height="30.0" rx="3" fill="#E1F4F0" stroke="#12806A" stroke-width="0.7"/>
<rect x="992.0" y="186.0" width="30.0" height="30.0" rx="3" fill="#E1F4F0" stroke="#12806A" stroke-width="0.7"/>
<rect x="1026.0" y="186.0" width="30.0" height="30.0" rx="3" fill="#E1F4F0" stroke="#12806A" stroke-width="0.7"/>
<line x1="969.0" y1="168.0" x2="979.0" y2="168.0" stroke="#5F6368" stroke-width="1.8"/>
<polygon points="988.0,168.0 979.0,172.1 979.0,163.9" fill="#5F6368"/>
<text font-family="Helvetica,Arial,sans-serif" font-size="11.5" fill="#202124" x="1024.0" y="226.0" text-anchor="middle" font-weight="600" dominant-baseline="central">X(t+1:t+n)</text>
<path d="M 184.0 252.0 L 184.0 342.0 L 948.0 342.0 L 948.0 185.0" fill="none" stroke="#1A73E8" stroke-width="1.6" stroke-dasharray="6 3" stroke-linejoin="round" stroke-linecap="round"/>
<polygon points="948.0,185.0 952.0,194.0 944.0,194.0" fill="#1A73E8"/>
<text font-family="Helvetica,Arial,sans-serif" font-size="11.5" fill="#1A73E8" x="566.0" y="332.0" text-anchor="middle" font-style="italic" dominant-baseline="central">advect_blind(X_t)   (residual-on-advection)</text>
</svg>
