<svg xmlns="http://www.w3.org/2000/svg" width="1080" height="340" viewBox="0 0 1080 340">
<text font-family="Helvetica,Arial,sans-serif" font-size="19" fill="#202124" x="540.0" y="24.0" text-anchor="middle" font-weight="700" dominant-baseline="central">ASG-WM data-flow architecture</text>
<line x1="180.0" y1="168.0" x2="181.0" y2="168.0" stroke="#5F6368" stroke-width="1.8"/>
<polygon points="190.0,168.0 181.0,172.1 181.0,163.9" fill="#5F6368"/>
<line x1="374.0" y1="168.0" x2="375.0" y2="168.0" stroke="#5F6368" stroke-width="1.8"/>
<polygon points="384.0,168.0 375.0,172.1 375.0,163.9" fill="#5F6368"/>
<line x1="580.0" y1="168.0" x2="581.0" y2="168.0" stroke="#5F6368" stroke-width="1.8"/>
<polygon points="590.0,168.0 581.0,172.1 581.0,163.9" fill="#5F6368"/>
<line x1="738.0" y1="168.0" x2="739.0" y2="168.0" stroke="#5F6368" stroke-width="1.8"/>
<polygon points="748.0,168.0 739.0,172.1 739.0,163.9" fill="#5F6368"/>
<line x1="924.0" y1="168.0" x2="925.0" y2="168.0" stroke="#5F6368" stroke-width="1.8"/>
<polygon points="934.0,168.0 925.0,172.1 925.0,163.9" fill="#5F6368"/>
<text font-family="Helvetica,Arial,sans-serif" font-size="11.5" fill="#5F6368" x="379.0" y="155.0" text-anchor="middle" font-style="italic" dominant-baseline="central">ASG(t)</text>
<text font-family="Helvetica,Arial,sans-serif" font-size="11.5" fill="#5F6368" x="585.0" y="155.0" text-anchor="middle" font-style="italic" dominant-baseline="central">ASG(t+h)</text>
<rect x="18.0" y="80.0" width="158.0" height="176.0" rx="8" fill="#FBFBFA" stroke="#5F6368" stroke-width="1.0"/>
<text font-family="Helvetica,Arial,sans-serif" font-size="15" fill="#202124" x="97.0" y="98.0" text-anchor="middle" font-weight="700" dominant-baseline="central">Radar nowcasting</text>
<rect x="46.0" y="112.0" width="30.0" height="26.0" rx="3" fill="#E8F0FE" stroke="#1A73E8" stroke-width="0.7"/>
<rect x="80.0" y="112.0" width="30.0" height="26.0" rx="3" fill="#E8F0FE" stroke="#1A73E8" stroke-width="0.7"/>
<rect x="114.0" y="112.0" width="30.0" height="26.0" rx="3" fill="#E8F0FE" stroke="#1A73E8" stroke-width="0.7"/>
<rect x="46.0" y="142.0" width="30.0" height="26.0" rx="3" fill="#E8F0FE" stroke="#1A73E8" stroke-width="0.7"/>
<rect x="80.0" y="142.0" width="30.0" height="26.0" rx="3" fill="#E8F0FE" stroke="#1A73E8" stroke-width="0.7"/>
<rect x="114.0" y="142.0" width="30.0" height="26.0" rx="3" fill="#E8F0FE" stroke="#1A73E8" stroke-width="0.7"/>
<text font-family="Helvetica,Arial,sans-serif" font-size="13" fill="#5F6368" x="97.0" y="188.0" text-anchor="middle" dominant-baseline="central">VIL, IR, GLM</text>
<line x1="32.0" y1="202.0" x2="162.0" y2="202.0" stroke="#E8EAED" stroke-width="1.0"/>
<text font-family="Helvetica,Arial,sans-serif" font-size="13" fill="#3C4043" x="97.0" y="218.0" text-anchor="middle" font-weight="600" dominant-baseline="central">context C</text>
<text font-family="Helvetica,Arial,sans-serif" font-size="13" fill="#5F6368" x="97.0" y="236.0" text-anchor="middle" dominant-baseline="central">CAPE/CIN/shear</text>
<rect x="194.0" y="80.0" width="176.0" height="176.0" rx="8" fill="#F3E8FD" stroke="#8430CE" stroke-width="1.3"/>
<text font-family="Helvetica,Arial,sans-serif" font-size="15" fill="#5B1C9E" x="282.0" y="98.0" text-anchor="middle" font-weight="700" dominant-baseline="central">Perception (VLM)</text>
<rect x="210.0" y="112.0" width="144.0" height="78.0" rx="6" fill="#fff" stroke="#8430CE" stroke-width="0.9"/>
<text font-family="Helvetica,Arial,sans-serif" font-size="13" fill="#5B1C9E" x="282.0" y="126.0" text-anchor="middle" font-weight="600" dominant-baseline="central">ASG(t) state</text>
<text font-family="'Courier New',monospace" font-size="12" fill="#202124" x="282.0" y="144.0" text-anchor="middle" dominant-baseline="central">OBJECT(id, c, a,</text>
<text font-family="'Courier New',monospace" font-size="12" fill="#202124" x="282.0" y="160.0" text-anchor="middle" dominant-baseline="central">p, v, regime, g)</text>
<text font-family="Helvetica,Arial,sans-serif" font-size="11.5" fill="#5F6368" x="282.0" y="178.0" text-anchor="middle" dominant-baseline="central">up to 16 objects</text>
<rect x="210.0" y="200.0" width="144.0" height="28.0" rx="5" fill="#F3E8FD" stroke="#8430CE" stroke-width="1.0"/>
<text font-family="Helvetica,Arial,sans-serif" font-size="11.5" fill="#5B1C9E" x="282.0" y="214.0" text-anchor="middle" font-weight="600" dominant-baseline="central">NL readout #1</text>
<text font-family="Helvetica,Arial,sans-serif" font-size="11.5" fill="#188038" x="282.0" y="242.0" text-anchor="middle" font-style="italic" dominant-baseline="central">+ learned met. priors</text>
<rect x="388.0" y="80.0" width="188.0" height="176.0" rx="8" fill="#FEF7E0" stroke="#E37400" stroke-width="1.3"/>
<text font-family="Helvetica,Arial,sans-serif" font-size="15" fill="#8A4B00" x="482.0" y="98.0" text-anchor="middle" font-weight="700" dominant-baseline="central">Transition</text>
<rect x="404.0" y="110.0" width="156.0" height="36.0" rx="6" fill="#fff" stroke="#E37400" stroke-width="0.9"/>
<text font-family="Helvetica,Arial,sans-serif" font-size="13" fill="#8A4B00" x="482.0" y="122.0" text-anchor="middle" font-weight="600" dominant-baseline="central">ASG-token attention</text>
<text font-family="Helvetica,Arial,sans-serif" font-size="11.5" fill="#202124" x="482.0" y="138.0" text-anchor="middle" dominant-baseline="central">residual on advection</text>
<rect x="404.0" y="154.0" width="50.7" height="26.0" rx="5" fill="#E6F4EA" stroke="#188038" stroke-width="1.0"/>
<text font-family="Helvetica,Arial,sans-serif" font-size="11.5" fill="#0B5325" x="429.3" y="167.0" text-anchor="middle" font-weight="600" dominant-baseline="central">advect</text>
<rect x="456.7" y="154.0" width="50.7" height="26.0" rx="5" fill="#E6F4EA" stroke="#188038" stroke-width="1.0"/>
<text font-family="Helvetica,Arial,sans-serif" font-size="11.5" fill="#0B5325" x="482.0" y="167.0" text-anchor="middle" font-weight="600" dominant-baseline="central">PINN</text>
<rect x="509.3" y="154.0" width="50.7" height="26.0" rx="5" fill="#E6F4EA" stroke="#188038" stroke-width="1.0"/>
<text font-family="Helvetica,Arial,sans-serif" font-size="11.5" fill="#0B5325" x="534.7" y="167.0" text-anchor="middle" font-weight="600" dominant-baseline="central">eq-prompt</text>
<rect x="404.0" y="186.0" width="156.0" height="26.0" rx="5" fill="#FCE8E6" stroke="#D93025" stroke-width="1.0"/>
<text font-family="Helvetica,Arial,sans-serif" font-size="11.5" fill="#A50E0E" x="482.0" y="199.0" text-anchor="middle" font-weight="600" dominant-baseline="central">symbolic check (Z3)</text>
<rect x="404.0" y="218.0" width="156.0" height="26.0" rx="5" fill="#FEF7E0" stroke="#E37400" stroke-width="1.0"/>
<text font-family="Helvetica,Arial,sans-serif" font-size="11.5" fill="#8A4B00" x="482.0" y="231.0" text-anchor="middle" font-weight="600" dominant-baseline="central">NL readout #2</text>
<rect x="594.0" y="110.0" width="140.0" height="116.0" rx="8" fill="#FCE8E6" stroke="#D93025" stroke-width="1.6" stroke-dasharray="6 3"/>
<text font-family="Helvetica,Arial,sans-serif" font-size="15" fill="#A50E0E" x="664.0" y="136.0" text-anchor="middle" font-weight="700" dominant-baseline="central">FAITHFUL</text>
<text font-family="Helvetica,Arial,sans-serif" font-size="15" fill="#A50E0E" x="664.0" y="154.0" text-anchor="middle" font-weight="700" dominant-baseline="central">BOTTLENECK</text>
<text font-family="Helvetica,Arial,sans-serif" font-size="13" fill="#202124" x="664.0" y="178.0" text-anchor="middle" dominant-baseline="central">Z = ASG(t+h)</text>
<text font-family="Helvetica,Arial,sans-serif" font-size="13" fill="#202124" x="664.0" y="194.0" text-anchor="middle" dominant-baseline="central">(+) advect_blind</text>
<text font-family="Helvetica,Arial,sans-serif" font-size="11.5" fill="#A50E0E" x="664.0" y="214.0" text-anchor="middle" font-style="italic" dominant-baseline="central">no encoder latents</text>
<rect x="752.0" y="80.0" width="168.0" height="176.0" rx="8" fill="#E1F4F0" stroke="#12806A" stroke-width="1.3"/>
<text font-family="Helvetica,Arial,sans-serif" font-size="15" fill="#0A5446" x="836.0" y="98.0" text-anchor="middle" font-weight="700" dominant-baseline="central">Physics renderer</text>
<rect x="768.0" y="112.0" width="136.0" height="50.0" rx="6" fill="#fff" stroke="#12806A" stroke-width="0.9"/>
<text font-family="Helvetica,Arial,sans-serif" font-size="13" fill="#0A5446" x="836.0" y="126.0" text-anchor="middle" font-weight="600" dominant-baseline="central">cond. U-Net</text>
<text font-family="Helvetica,Arial,sans-serif" font-size="11.5" fill="#202124" x="836.0" y="144.0" text-anchor="middle" dominant-baseline="central">few-step flow</text>
<text font-family="Helvetica,Arial,sans-serif" font-size="13" fill="#202124" x="836.0" y="176.0" text-anchor="middle" font-weight="600" dominant-baseline="central">X = advect + D(Z)</text>
<rect x="768.0" y="190.0" width="136.0" height="28.0" rx="5" fill="#F1F3F4" stroke="#5F6368" stroke-width="1.0"/>
<text font-family="Helvetica,Arial,sans-serif" font-size="11.5" fill="#3C4043" x="836.0" y="204.0" text-anchor="middle" font-weight="600" dominant-baseline="central">zero ASG -> advection</text>
<text font-family="Helvetica,Arial,sans-serif" font-size="11.5" fill="#5F6368" x="836.0" y="238.0" text-anchor="middle" dominant-baseline="central">+ mass / spectral loss</text>
<rect x="938.0" y="80.0" width="104.0" height="176.0" rx="8" fill="#FBFBFA" stroke="#5F6368" stroke-width="1.0"/>
<text font-family="Helvetica,Arial,sans-serif" font-size="15" fill="#202124" x="990.0" y="98.0" text-anchor="middle" font-weight="700" dominant-baseline="central">Forecast</text>
<rect x="956.0" y="114.0" width="30.0" height="30.0" rx="3" fill="#E1F4F0" stroke="#12806A" stroke-width="0.7"/>
<rect x="990.0" y="114.0" width="30.0" height="30.0" rx="3" fill="#E1F4F0" stroke="#12806A" stroke-width="0.7"/>
<rect x="956.0" y="148.0" width="30.0" height="30.0" rx="3" fill="#E1F4F0" stroke="#12806A" stroke-width="0.7"/>
<rect x="990.0" y="148.0" width="30.0" height="30.0" rx="3" fill="#E1F4F0" stroke="#12806A" stroke-width="0.7"/>
<rect x="956.0" y="182.0" width="30.0" height="30.0" rx="3" fill="#E1F4F0" stroke="#12806A" stroke-width="0.7"/>
<rect x="990.0" y="182.0" width="30.0" height="30.0" rx="3" fill="#E1F4F0" stroke="#12806A" stroke-width="0.7"/>
<text font-family="Helvetica,Arial,sans-serif" font-size="13" fill="#202124" x="990.0" y="226.0" text-anchor="middle" font-weight="600" dominant-baseline="central">X(t+1:t+n)</text>
<text font-family="Helvetica,Arial,sans-serif" font-size="11.5" fill="#5F6368" x="990.0" y="243.0" text-anchor="middle" dominant-baseline="central">0-3 h, K=10</text>
<path d="M 97.0 256.0 L 97.0 318.0 L 664.0 318.0 L 664.0 226.0" fill="none" stroke="#1A73E8" stroke-width="1.6" stroke-dasharray="6 3" stroke-linejoin="round" stroke-linecap="round"/>
<polygon points="664.0,226.0 668.0,235.0 660.0,235.0" fill="#1A73E8"/>
<text font-family="Helvetica,Arial,sans-serif" font-size="11.5" fill="#1A73E8" x="380.5" y="308.0" text-anchor="middle" font-style="italic" dominant-baseline="central">future-blind advection path  advect_blind(X_t)</text>
</svg>
